<?xml version="1.0" encoding="utf-8"?>
<!-- Generator: Adobe Illustrator 16.0.0, SVG Export Plug-In . SVG Version: 6.00 Build 0)  -->
<!DOCTYPE svg PUBLIC "-//W3C//DTD SVG 1.1//EN" "http://www.w3.org/Graphics/SVG/1.1/DTD/svg11.dtd">
<svg version="1.1" id="Layer_1" xmlns="http://www.w3.org/2000/svg" xmlns:xlink="http://www.w3.org/1999/xlink" x="0px" y="0px"
	 width="128px" height="128px" viewBox="0 0 128 128" enable-background="new 0 0 128 128" xml:space="preserve">
<g>
	<path fill="#4979BD" d="M128,103c0,13.75-11.25,25-25,25H25c-13.75,0-25-11.25-25-25V25C0,11.25,11.25,0,25,0h78
		c13.75,0,25,11.25,25,25V103z"/>
</g>
<path fill="#FFFFFF" d="M89.726,50.007c0.099-0.629,0.441-1.195,0.954-1.574c1.08-0.789,2.594-0.558,3.389,0.519l4.313,5.874
	c1.588,2.166,4.631,2.634,6.796,1.045c0.001,0,0.003-0.001,0.004-0.003l3.937-2.888c2.096-1.632,2.553-4.616,1.041-6.801
	l-4.314-5.874c-0.669-1.164-0.27-2.65,0.893-3.321c0.98-0.564,2.22-0.379,2.991,0.447l4.314,5.875
	c3.048,4.363,2.13,10.35-2.085,13.601l-3.906,2.869c-4.327,3.18-10.414,2.252-13.594-2.075c-0.004-0.003-0.005-0.005-0.008-0.008
	l-4.286-5.896C89.789,51.281,89.631,50.638,89.726,50.007z"/>
<path fill="#FFFFFF" d="M64.068,27.308c-0.521-2.526-0.021-5.157,1.396-7.313l2.666-4.049c2.95-4.488,8.979-5.734,13.466-2.784
	c0.003,0.001,0.008,0.004,0.01,0.006l6.092,4.031c1.028,0.864,1.159,2.398,0.296,3.425c-0.73,0.865-1.957,1.114-2.966,0.601
	l-6.087-4.008c-2.241-1.477-5.257-0.857-6.735,1.385c-0.001,0.001-0.002,0.003-0.004,0.004l-2.683,4.078
	c-1.396,2.259-0.788,5.216,1.388,6.738l6.089,4.007c1.2,0.601,1.686,2.062,1.085,3.262c-0.602,1.201-2.063,1.687-3.262,1.085
	c-0.167-0.083-0.321-0.184-0.464-0.303l-6.089-4.006C66.105,32.052,64.593,29.837,64.068,27.308z"/>
<path fill="#FFFFFF" d="M49.533,75.927c0.508-0.509,1.133-0.764,1.877-0.765c0.742,0,1.367,0.254,1.876,0.761
	c0.508,0.508,0.763,1.134,0.764,1.876c0,0.743-0.253,1.368-0.761,1.877s-1.133,0.763-1.876,0.764
	c-0.742-0.001-1.367-0.253-1.877-0.762c-0.508-0.508-0.762-1.133-0.763-1.874C48.773,77.06,49.025,76.436,49.533,75.927z
	 M60.198,69.001l26.524-3.216c0.938-0.157,1.73,0.146,2.375,0.907c0.587,0.78,0.744,1.622,0.471,2.52l-1.871,5.631
	c-0.117,0.391-0.332,0.742-0.645,1.055c-0.332,0.332-0.713,0.559-1.142,0.676l-31.563,8.905l-1.286,5.159
	c-0.077,0.235-0.146,0.401-0.206,0.498c1.232,0.685,2.279,1.533,3.14,2.548c1.369,1.641,2.265,3.628,2.688,5.963
	c0.42,2.336,0.339,4.832-0.244,7.489c-0.934,4.222-2.817,7.75-5.648,10.586c-2.656,2.66-5.586,4.069-8.792,4.229
	c-3.399,0.12-6.194-1.13-8.385-3.746c-1.349-1.62-2.24-3.603-2.671-5.947c-0.432-2.345-0.366-4.836,0.198-7.476
	c0.935-4.222,2.828-7.761,5.678-10.614c1.621-1.624,3.398-2.798,5.332-3.522c-0.077-0.43-0.079-0.859-0.001-1.289l1.433-5.718
	l-5.716,1.442c-0.429,0.078-0.858,0.078-1.288,0c-0.722,1.936-1.893,3.715-3.514,5.337c-2.851,2.855-6.386,4.755-10.607,5.696
	c-2.638,0.567-5.129,0.638-7.475,0.21c-2.345-0.428-4.329-1.315-5.952-2.663c-1.251-1.055-2.204-2.31-2.86-3.765
	c-0.655-1.455-0.945-2.983-0.869-4.586c0.114-3.205,1.51-6.147,4.186-8.826c2.83-2.836,6.357-4.725,10.577-5.665
	c2.637-0.608,5.128-0.698,7.474-0.271c2.346,0.429,4.339,1.326,5.981,2.692c1.018,0.86,1.867,1.904,2.553,3.135
	c0.098-0.059,0.265-0.127,0.499-0.206l5.156-1.293L52.587,43.3c0.116-0.43,0.341-0.811,0.673-1.143
	c0.313-0.314,0.664-0.528,1.055-0.646l5.627-1.88c0.898-0.273,1.739-0.119,2.521,0.467c0.763,0.644,1.066,1.435,0.911,2.374
	L60.198,69.001z M32.625,81.362c0.076-1.72-0.774-2.979-2.553-3.779c-1.778-0.801-3.958-0.905-6.538-0.317
	c-2.95,0.647-5.401,1.948-7.354,3.903c-1.444,1.447-2.196,2.904-2.253,4.37c-0.076,1.72,0.773,2.979,2.552,3.779
	c1.779,0.8,3.958,0.905,6.538,0.317c2.95-0.647,5.401-1.948,7.354-3.904C31.816,84.283,32.568,82.828,32.625,81.362z
	 M51.989,105.677c0.585-2.58,0.476-4.76-0.327-6.537c-0.803-1.778-2.063-2.626-3.783-2.548c-1.465,0.061-2.921,0.813-4.365,2.262
	c-1.954,1.955-3.251,4.409-3.893,7.359c-0.585,2.58-0.476,4.759,0.326,6.537c0.804,1.777,2.064,2.626,3.784,2.546
	c1.465-0.06,2.921-0.813,4.366-2.26C50.05,111.08,51.347,108.627,51.989,105.677z M39.223,82.5l4.513-1.117l-0.323-0.322
	c-0.704-0.702-0.93-1.572-0.677-2.608l0.176-0.646l-3.692,0.941v1.524c0.001,0.118,0.011,0.321,0.03,0.615
	c0.021,0.293,0.02,0.527,0.001,0.705c0,0.077-0.005,0.15-0.015,0.219s-0.015,0.122-0.015,0.161L39.223,82.5z M52.354,82.489
	l3.749-1.879l4.66-38.459l-5.625,1.88l-9.852,35.152l3.314,3.31l-1.87,7.505l0.499-0.029c0.078,0,0.204-0.011,0.38-0.03
	c0.157,0,0.382,0.01,0.676,0.028c0.293,0.02,0.517,0.03,0.673,0.03l1.524-0.002L52.354,82.489z M85.176,74.022l1.871-5.629
	l-27.198,3.305l-1.136,9.232c0.02,0.099-0.04,0.294-0.175,0.587L85.176,74.022z"/>
<rect x="70" y="51.742" transform="matrix(0.7381 0.6747 -0.6747 0.7381 57.1789 -33.7001)" fill="#FFFFFF" width="4.001" height="10.125"/>
<rect x="79.108" y="41.57" transform="matrix(0.7381 0.6747 -0.6747 0.7381 52.7016 -42.5089)" fill="#FFFFFF" width="4.001" height="10.125"/>
<rect x="87.698" y="32.277" transform="matrix(0.7381 0.6747 -0.6747 0.7381 48.6811 -50.7379)" fill="#FFFFFF" width="4.001" height="10.125"/>
<rect x="96" y="22.992" transform="matrix(0.7381 0.6747 -0.6747 0.7381 44.5911 -58.7702)" fill="#FFFFFF" width="4.001" height="10.125"/>
<rect x="104.272" y="13.694" transform="matrix(0.7381 0.6747 -0.6747 0.7381 40.4842 -66.7863)" fill="#FFFFFF" width="4.001" height="10.125"/>
<rect x="96.921" y="38.339" transform="matrix(0.7786 -0.6275 0.6275 0.7786 -5.3345 71.6845)" fill="#FFFFFF" width="4.001" height="10.126"/>
<rect x="78.108" y="21.994" transform="matrix(0.5495 -0.8355 0.8355 0.5495 13.4865 79.1229)" fill="#FFFFFF" width="4.001" height="10.126"/>
</svg>
